<?xml version="1.0" encoding="UTF-8" standalone="no"?>
<!DOCTYPE svg PUBLIC "-//W3C//DTD SVG 1.1//EN"
 "http://www.w3.org/Graphics/SVG/1.1/DTD/svg11.dtd">
<!-- Generated by graphviz version 2.40.1 (0)
 -->
<!-- Title: AST tree Pages: 1 -->
<svg width="1421pt" height="483pt"
 viewBox="0.00 0.00 1420.50 483.00" xmlns="http://www.w3.org/2000/svg" xmlns:xlink="http://www.w3.org/1999/xlink">
<g id="graph0" class="graph" transform="scale(1 1) rotate(0) translate(4 479)">
<title>AST tree</title>
<polygon fill="#ffffff" stroke="transparent" points="-4,4 -4,-479 1416.5,-479 1416.5,4 -4,4"/>
<!-- node0 -->
<g id="node1" class="node">
<title>node0</title>
<polygon fill="none" stroke="#000000" points="344.5,-438.5 344.5,-474.5 457.5,-474.5 457.5,-438.5 344.5,-438.5"/>
<text text-anchor="middle" x="401" y="-452.8" font-family="Times,serif" font-size="14.00" fill="#000000">Program root</text>
</g>
<!-- node1 -->
<g id="node2" class="node">
<title>node1</title>
<polygon fill="none" stroke="#000000" points="196,-365.5 196,-401.5 394,-401.5 394,-365.5 196,-365.5"/>
<text text-anchor="middle" x="231.5" y="-379.8" font-family="Times,serif" font-size="14.00" fill="#000000">Method</text>
<polyline fill="none" stroke="#000000" points="267,-365.5 267,-401.5 "/>
<text text-anchor="middle" x="293" y="-379.8" font-family="Times,serif" font-size="14.00" fill="#000000">main</text>
<polyline fill="none" stroke="#000000" points="319,-365.5 319,-401.5 "/>
<text text-anchor="middle" x="337" y="-379.8" font-family="Times,serif" font-size="14.00" fill="#000000">int</text>
<polyline fill="none" stroke="#000000" points="355,-365.5 355,-401.5 "/>
<text text-anchor="middle" x="374.5" y="-379.8" font-family="Times,serif" font-size="14.00" fill="#000000">1,2</text>
</g>
<!-- node0&#45;&gt;node1 -->
<g id="edge1" class="edge">
<title>node0&#45;&gt;node1</title>
<path fill="none" stroke="#000000" d="M374.7977,-438.4551C361.1654,-429.0667 344.3231,-417.4678 329.6302,-407.3491"/>
<polygon fill="#000000" stroke="#000000" points="331.4893,-404.3797 321.2682,-401.5904 327.5189,-410.1448 331.4893,-404.3797"/>
</g>
<!-- node5 -->
<g id="node6" class="node">
<title>node5</title>
<polygon fill="none" stroke="#000000" points="415,-365.5 415,-401.5 605,-401.5 605,-365.5 415,-365.5"/>
<text text-anchor="middle" x="450.5" y="-379.8" font-family="Times,serif" font-size="14.00" fill="#000000">Method</text>
<polyline fill="none" stroke="#000000" points="486,-365.5 486,-401.5 "/>
<text text-anchor="middle" x="508" y="-379.8" font-family="Times,serif" font-size="14.00" fill="#000000">fact</text>
<polyline fill="none" stroke="#000000" points="530,-365.5 530,-401.5 "/>
<text text-anchor="middle" x="548" y="-379.8" font-family="Times,serif" font-size="14.00" fill="#000000">int</text>
<polyline fill="none" stroke="#000000" points="566,-365.5 566,-401.5 "/>
<text text-anchor="middle" x="585.5" y="-379.8" font-family="Times,serif" font-size="14.00" fill="#000000">4,5</text>
</g>
<!-- node0&#45;&gt;node5 -->
<g id="edge5" class="edge">
<title>node0&#45;&gt;node5</title>
<path fill="none" stroke="#000000" d="M427.9438,-438.4551C441.962,-429.0667 459.281,-417.4678 474.3897,-407.3491"/>
<polygon fill="#000000" stroke="#000000" points="476.6272,-410.0631 482.9884,-401.5904 472.732,-404.2469 476.6272,-410.0631"/>
</g>
<!-- node2 -->
<g id="node3" class="node">
<title>node2</title>
<polygon fill="none" stroke="#000000" points="169,-292.5 169,-328.5 409,-328.5 409,-292.5 169,-292.5"/>
<text text-anchor="middle" x="191" y="-306.8" font-family="Times,serif" font-size="14.00" fill="#000000">Call</text>
<polyline fill="none" stroke="#000000" points="213,-292.5 213,-328.5 "/>
<text text-anchor="middle" x="239" y="-306.8" font-family="Times,serif" font-size="14.00" fill="#000000">print</text>
<polyline fill="none" stroke="#000000" points="265,-292.5 265,-328.5 "/>
<text text-anchor="middle" x="317.5" y="-306.8" font-family="Times,serif" font-size="14.00" fill="#000000">&lt;unknown&gt;</text>
<polyline fill="none" stroke="#000000" points="370,-292.5 370,-328.5 "/>
<text text-anchor="middle" x="389.5" y="-306.8" font-family="Times,serif" font-size="14.00" fill="#000000">2,2</text>
</g>
<!-- node1&#45;&gt;node2 -->
<g id="edge2" class="edge">
<title>node1&#45;&gt;node2</title>
<path fill="none" stroke="#000000" d="M293.5169,-365.4551C292.8534,-357.3828 292.0556,-347.6764 291.3163,-338.6817"/>
<polygon fill="#000000" stroke="#000000" points="294.7944,-338.27 290.4869,-328.5904 287.8179,-338.8435 294.7944,-338.27"/>
</g>
<!-- node3 -->
<g id="node4" class="node">
<title>node3</title>
<polygon fill="none" stroke="#000000" points="160,-219.5 160,-255.5 392,-255.5 392,-219.5 160,-219.5"/>
<text text-anchor="middle" x="182" y="-233.8" font-family="Times,serif" font-size="14.00" fill="#000000">Call</text>
<polyline fill="none" stroke="#000000" points="204,-219.5 204,-255.5 "/>
<text text-anchor="middle" x="226" y="-233.8" font-family="Times,serif" font-size="14.00" fill="#000000">fact</text>
<polyline fill="none" stroke="#000000" points="248,-219.5 248,-255.5 "/>
<text text-anchor="middle" x="300.5" y="-233.8" font-family="Times,serif" font-size="14.00" fill="#000000">&lt;unknown&gt;</text>
<polyline fill="none" stroke="#000000" points="353,-219.5 353,-255.5 "/>
<text text-anchor="middle" x="372.5" y="-233.8" font-family="Times,serif" font-size="14.00" fill="#000000">2,2</text>
</g>
<!-- node2&#45;&gt;node3 -->
<g id="edge3" class="edge">
<title>node2&#45;&gt;node3</title>
<path fill="none" stroke="#000000" d="M285.7865,-292.4551C284.349,-284.3828 282.6205,-274.6764 281.0187,-265.6817"/>
<polygon fill="#000000" stroke="#000000" points="284.4207,-264.8218 279.2216,-255.5904 277.5291,-266.0491 284.4207,-264.8218"/>
</g>
<!-- node4 -->
<g id="node5" class="node">
<title>node4</title>
<polygon fill="none" stroke="#000000" points="0,-146.5 0,-182.5 304,-182.5 304,-146.5 0,-146.5"/>
<text text-anchor="middle" x="55.5" y="-160.8" font-family="Times,serif" font-size="14.00" fill="#000000">Name Access</text>
<polyline fill="none" stroke="#000000" points="111,-146.5 111,-182.5 "/>
<text text-anchor="middle" x="135.5" y="-160.8" font-family="Times,serif" font-size="14.00" fill="#000000">read</text>
<polyline fill="none" stroke="#000000" points="160,-146.5 160,-182.5 "/>
<text text-anchor="middle" x="212.5" y="-160.8" font-family="Times,serif" font-size="14.00" fill="#000000">&lt;unknown&gt;</text>
<polyline fill="none" stroke="#000000" points="265,-146.5 265,-182.5 "/>
<text text-anchor="middle" x="284.5" y="-160.8" font-family="Times,serif" font-size="14.00" fill="#000000">2,2</text>
</g>
<!-- node3&#45;&gt;node4 -->
<g id="edge4" class="edge">
<title>node3&#45;&gt;node4</title>
<path fill="none" stroke="#000000" d="M245.3483,-219.4551C229.1029,-209.8912 208.9609,-198.0334 191.5497,-187.7833"/>
<polygon fill="#000000" stroke="#000000" points="193.122,-184.6475 182.7288,-182.5904 189.5707,-190.6798 193.122,-184.6475"/>
</g>
<!-- node6 -->
<g id="node7" class="node">
<title>node6</title>
<polygon fill="none" stroke="#000000" points="438.5,-292.5 438.5,-328.5 581.5,-328.5 581.5,-292.5 438.5,-292.5"/>
<text text-anchor="middle" x="459.5" y="-306.8" font-family="Times,serif" font-size="14.00" fill="#000000">Arg</text>
<polyline fill="none" stroke="#000000" points="480.5,-292.5 480.5,-328.5 "/>
<text text-anchor="middle" x="493.5" y="-306.8" font-family="Times,serif" font-size="14.00" fill="#000000">n</text>
<polyline fill="none" stroke="#000000" points="506.5,-292.5 506.5,-328.5 "/>
<text text-anchor="middle" x="524.5" y="-306.8" font-family="Times,serif" font-size="14.00" fill="#000000">int</text>
<polyline fill="none" stroke="#000000" points="542.5,-292.5 542.5,-328.5 "/>
<text text-anchor="middle" x="562" y="-306.8" font-family="Times,serif" font-size="14.00" fill="#000000">4,4</text>
</g>
<!-- node5&#45;&gt;node6 -->
<g id="edge6" class="edge">
<title>node5&#45;&gt;node6</title>
<path fill="none" stroke="#000000" d="M510,-365.4551C510,-357.3828 510,-347.6764 510,-338.6817"/>
<polygon fill="#000000" stroke="#000000" points="513.5001,-338.5903 510,-328.5904 506.5001,-338.5904 513.5001,-338.5903"/>
</g>
<!-- node7 -->
<g id="node8" class="node">
<title>node7</title>
<polygon fill="none" stroke="#000000" points="602,-292.5 602,-328.5 700,-328.5 700,-292.5 602,-292.5"/>
<text text-anchor="middle" x="631.5" y="-306.8" font-family="Times,serif" font-size="14.00" fill="#000000">if else</text>
<polyline fill="none" stroke="#000000" points="661,-292.5 661,-328.5 "/>
<text text-anchor="middle" x="680.5" y="-306.8" font-family="Times,serif" font-size="14.00" fill="#000000">5,5</text>
</g>
<!-- node5&#45;&gt;node7 -->
<g id="edge7" class="edge">
<title>node5&#45;&gt;node7</title>
<path fill="none" stroke="#000000" d="M544.8539,-365.4551C563.6655,-355.7157 587.072,-343.5975 607.1148,-333.2207"/>
<polygon fill="#000000" stroke="#000000" points="608.7871,-336.2962 616.0583,-328.5904 605.5687,-330.0799 608.7871,-336.2962"/>
</g>
<!-- node8 -->
<g id="node9" class="node">
<title>node8</title>
<polygon fill="none" stroke="#000000" points="462.5,-219.5 462.5,-255.5 607.5,-255.5 607.5,-219.5 462.5,-219.5"/>
<text text-anchor="middle" x="495" y="-233.8" font-family="Times,serif" font-size="14.00" fill="#000000">Bin Op</text>
<polyline fill="none" stroke="#000000" points="527.5,-219.5 527.5,-255.5 "/>
<text text-anchor="middle" x="548" y="-233.8" font-family="Times,serif" font-size="14.00" fill="#000000">&lt;=</text>
<polyline fill="none" stroke="#000000" points="568.5,-219.5 568.5,-255.5 "/>
<text text-anchor="middle" x="588" y="-233.8" font-family="Times,serif" font-size="14.00" fill="#000000">5,5</text>
</g>
<!-- node7&#45;&gt;node8 -->
<g id="edge8" class="edge">
<title>node7&#45;&gt;node8</title>
<path fill="none" stroke="#000000" d="M622.3258,-292.4551C607.268,-282.979 588.6314,-271.2508 572.447,-261.0658"/>
<polygon fill="#000000" stroke="#000000" points="574.0741,-257.9544 563.7463,-255.5904 570.3457,-263.8788 574.0741,-257.9544"/>
</g>
<!-- node11 -->
<g id="node12" class="node">
<title>node11</title>
<polygon fill="none" stroke="#000000" points="625.5,-219.5 625.5,-255.5 784.5,-255.5 784.5,-219.5 625.5,-219.5"/>
<text text-anchor="middle" x="654.5" y="-233.8" font-family="Times,serif" font-size="14.00" fill="#000000">Const</text>
<polyline fill="none" stroke="#000000" points="683.5,-219.5 683.5,-255.5 "/>
<text text-anchor="middle" x="701.5" y="-233.8" font-family="Times,serif" font-size="14.00" fill="#000000">int</text>
<polyline fill="none" stroke="#000000" points="719.5,-219.5 719.5,-255.5 "/>
<text text-anchor="middle" x="732.5" y="-233.8" font-family="Times,serif" font-size="14.00" fill="#000000">1</text>
<polyline fill="none" stroke="#000000" points="745.5,-219.5 745.5,-255.5 "/>
<text text-anchor="middle" x="765" y="-233.8" font-family="Times,serif" font-size="14.00" fill="#000000">5,5</text>
</g>
<!-- node7&#45;&gt;node11 -->
<g id="edge11" class="edge">
<title>node7&#45;&gt;node11</title>
<path fill="none" stroke="#000000" d="M664.3483,-292.4551C670.7739,-283.7686 678.5993,-273.1898 685.6621,-263.642"/>
<polygon fill="#000000" stroke="#000000" points="688.4849,-265.7113 691.6181,-255.5904 682.8572,-261.5484 688.4849,-265.7113"/>
</g>
<!-- node12 -->
<g id="node13" class="node">
<title>node12</title>
<polygon fill="none" stroke="#000000" points="875.5,-219.5 875.5,-255.5 1002.5,-255.5 1002.5,-219.5 875.5,-219.5"/>
<text text-anchor="middle" x="908" y="-233.8" font-family="Times,serif" font-size="14.00" fill="#000000">Bin Op</text>
<polyline fill="none" stroke="#000000" points="940.5,-219.5 940.5,-255.5 "/>
<text text-anchor="middle" x="952" y="-233.8" font-family="Times,serif" font-size="14.00" fill="#000000">*</text>
<polyline fill="none" stroke="#000000" points="963.5,-219.5 963.5,-255.5 "/>
<text text-anchor="middle" x="983" y="-233.8" font-family="Times,serif" font-size="14.00" fill="#000000">5,5</text>
</g>
<!-- node7&#45;&gt;node12 -->
<g id="edge12" class="edge">
<title>node7&#45;&gt;node12</title>
<path fill="none" stroke="#000000" d="M700.1817,-298.0338C745.6115,-286.5186 813.7068,-269.2583 865.574,-256.1114"/>
<polygon fill="#000000" stroke="#000000" points="866.5563,-259.4732 875.3898,-253.6234 864.8363,-252.6878 866.5563,-259.4732"/>
</g>
<!-- node9 -->
<g id="node10" class="node">
<title>node9</title>
<polygon fill="none" stroke="#000000" points="322.5,-146.5 322.5,-182.5 603.5,-182.5 603.5,-146.5 322.5,-146.5"/>
<text text-anchor="middle" x="378" y="-160.8" font-family="Times,serif" font-size="14.00" fill="#000000">Name Access</text>
<polyline fill="none" stroke="#000000" points="433.5,-146.5 433.5,-182.5 "/>
<text text-anchor="middle" x="446.5" y="-160.8" font-family="Times,serif" font-size="14.00" fill="#000000">n</text>
<polyline fill="none" stroke="#000000" points="459.5,-146.5 459.5,-182.5 "/>
<text text-anchor="middle" x="512" y="-160.8" font-family="Times,serif" font-size="14.00" fill="#000000">&lt;unknown&gt;</text>
<polyline fill="none" stroke="#000000" points="564.5,-146.5 564.5,-182.5 "/>
<text text-anchor="middle" x="584" y="-160.8" font-family="Times,serif" font-size="14.00" fill="#000000">5,5</text>
</g>
<!-- node8&#45;&gt;node9 -->
<g id="edge9" class="edge">
<title>node8&#45;&gt;node9</title>
<path fill="none" stroke="#000000" d="M517.2022,-219.4551C508.3752,-210.5054 497.5669,-199.547 487.9307,-189.7769"/>
<polygon fill="#000000" stroke="#000000" points="490.3566,-187.2523 480.8425,-182.5904 485.3728,-192.1678 490.3566,-187.2523"/>
</g>
<!-- node10 -->
<g id="node11" class="node">
<title>node10</title>
<polygon fill="none" stroke="#000000" points="621.5,-146.5 621.5,-182.5 780.5,-182.5 780.5,-146.5 621.5,-146.5"/>
<text text-anchor="middle" x="650.5" y="-160.8" font-family="Times,serif" font-size="14.00" fill="#000000">Const</text>
<polyline fill="none" stroke="#000000" points="679.5,-146.5 679.5,-182.5 "/>
<text text-anchor="middle" x="697.5" y="-160.8" font-family="Times,serif" font-size="14.00" fill="#000000">int</text>
<polyline fill="none" stroke="#000000" points="715.5,-146.5 715.5,-182.5 "/>
<text text-anchor="middle" x="728.5" y="-160.8" font-family="Times,serif" font-size="14.00" fill="#000000">1</text>
<polyline fill="none" stroke="#000000" points="741.5,-146.5 741.5,-182.5 "/>
<text text-anchor="middle" x="761" y="-160.8" font-family="Times,serif" font-size="14.00" fill="#000000">5,5</text>
</g>
<!-- node8&#45;&gt;node10 -->
<g id="edge10" class="edge">
<title>node8&#45;&gt;node10</title>
<path fill="none" stroke="#000000" d="M576.0337,-219.4551C598.5797,-209.5403 626.732,-197.16 650.6053,-186.6615"/>
<polygon fill="#000000" stroke="#000000" points="652.118,-189.8198 659.863,-182.5904 649.3001,-183.4121 652.118,-189.8198"/>
</g>
<!-- node13 -->
<g id="node14" class="node">
<title>node13</title>
<polygon fill="none" stroke="#000000" points="798.5,-146.5 798.5,-182.5 1079.5,-182.5 1079.5,-146.5 798.5,-146.5"/>
<text text-anchor="middle" x="854" y="-160.8" font-family="Times,serif" font-size="14.00" fill="#000000">Name Access</text>
<polyline fill="none" stroke="#000000" points="909.5,-146.5 909.5,-182.5 "/>
<text text-anchor="middle" x="922.5" y="-160.8" font-family="Times,serif" font-size="14.00" fill="#000000">n</text>
<polyline fill="none" stroke="#000000" points="935.5,-146.5 935.5,-182.5 "/>
<text text-anchor="middle" x="988" y="-160.8" font-family="Times,serif" font-size="14.00" fill="#000000">&lt;unknown&gt;</text>
<polyline fill="none" stroke="#000000" points="1040.5,-146.5 1040.5,-182.5 "/>
<text text-anchor="middle" x="1060" y="-160.8" font-family="Times,serif" font-size="14.00" fill="#000000">5,5</text>
</g>
<!-- node12&#45;&gt;node13 -->
<g id="edge13" class="edge">
<title>node12&#45;&gt;node13</title>
<path fill="none" stroke="#000000" d="M939,-219.4551C939,-211.3828 939,-201.6764 939,-192.6817"/>
<polygon fill="#000000" stroke="#000000" points="942.5001,-192.5903 939,-182.5904 935.5001,-192.5904 942.5001,-192.5903"/>
</g>
<!-- node14 -->
<g id="node15" class="node">
<title>node14</title>
<polygon fill="none" stroke="#000000" points="1098,-146.5 1098,-182.5 1330,-182.5 1330,-146.5 1098,-146.5"/>
<text text-anchor="middle" x="1120" y="-160.8" font-family="Times,serif" font-size="14.00" fill="#000000">Call</text>
<polyline fill="none" stroke="#000000" points="1142,-146.5 1142,-182.5 "/>
<text text-anchor="middle" x="1164" y="-160.8" font-family="Times,serif" font-size="14.00" fill="#000000">fact</text>
<polyline fill="none" stroke="#000000" points="1186,-146.5 1186,-182.5 "/>
<text text-anchor="middle" x="1238.5" y="-160.8" font-family="Times,serif" font-size="14.00" fill="#000000">&lt;unknown&gt;</text>
<polyline fill="none" stroke="#000000" points="1291,-146.5 1291,-182.5 "/>
<text text-anchor="middle" x="1310.5" y="-160.8" font-family="Times,serif" font-size="14.00" fill="#000000">5,5</text>
</g>
<!-- node12&#45;&gt;node14 -->
<g id="edge14" class="edge">
<title>node12&#45;&gt;node14</title>
<path fill="none" stroke="#000000" d="M1002.7817,-220.5688C1042.5261,-210.0185 1093.9371,-196.3713 1136.0864,-185.1825"/>
<polygon fill="#000000" stroke="#000000" points="1136.9903,-188.5639 1145.7575,-182.6153 1135.1942,-181.7982 1136.9903,-188.5639"/>
</g>
<!-- node15 -->
<g id="node16" class="node">
<title>node15</title>
<polygon fill="none" stroke="#000000" points="1151.5,-73.5 1151.5,-109.5 1276.5,-109.5 1276.5,-73.5 1151.5,-73.5"/>
<text text-anchor="middle" x="1184" y="-87.8" font-family="Times,serif" font-size="14.00" fill="#000000">Bin Op</text>
<polyline fill="none" stroke="#000000" points="1216.5,-73.5 1216.5,-109.5 "/>
<text text-anchor="middle" x="1227" y="-87.8" font-family="Times,serif" font-size="14.00" fill="#000000">&#45;</text>
<polyline fill="none" stroke="#000000" points="1237.5,-73.5 1237.5,-109.5 "/>
<text text-anchor="middle" x="1257" y="-87.8" font-family="Times,serif" font-size="14.00" fill="#000000">5,5</text>
</g>
<!-- node14&#45;&gt;node15 -->
<g id="edge15" class="edge">
<title>node14&#45;&gt;node15</title>
<path fill="none" stroke="#000000" d="M1214,-146.4551C1214,-138.3828 1214,-128.6764 1214,-119.6817"/>
<polygon fill="#000000" stroke="#000000" points="1217.5001,-119.5903 1214,-109.5904 1210.5001,-119.5904 1217.5001,-119.5903"/>
</g>
<!-- node16 -->
<g id="node17" class="node">
<title>node16</title>
<polygon fill="none" stroke="#000000" points="954.5,-.5 954.5,-36.5 1235.5,-36.5 1235.5,-.5 954.5,-.5"/>
<text text-anchor="middle" x="1010" y="-14.8" font-family="Times,serif" font-size="14.00" fill="#000000">Name Access</text>
<polyline fill="none" stroke="#000000" points="1065.5,-.5 1065.5,-36.5 "/>
<text text-anchor="middle" x="1078.5" y="-14.8" font-family="Times,serif" font-size="14.00" fill="#000000">n</text>
<polyline fill="none" stroke="#000000" points="1091.5,-.5 1091.5,-36.5 "/>
<text text-anchor="middle" x="1144" y="-14.8" font-family="Times,serif" font-size="14.00" fill="#000000">&lt;unknown&gt;</text>
<polyline fill="none" stroke="#000000" points="1196.5,-.5 1196.5,-36.5 "/>
<text text-anchor="middle" x="1216" y="-14.8" font-family="Times,serif" font-size="14.00" fill="#000000">5,5</text>
</g>
<!-- node15&#45;&gt;node16 -->
<g id="edge16" class="edge">
<title>node15&#45;&gt;node16</title>
<path fill="none" stroke="#000000" d="M1184.5843,-73.4551C1169.137,-63.979 1150.0184,-52.2508 1133.4155,-42.0658"/>
<polygon fill="#000000" stroke="#000000" points="1134.8439,-38.836 1124.4898,-36.5904 1131.1836,-44.8028 1134.8439,-38.836"/>
</g>
<!-- node17 -->
<g id="node18" class="node">
<title>node17</title>
<polygon fill="none" stroke="#000000" points="1253.5,-.5 1253.5,-36.5 1412.5,-36.5 1412.5,-.5 1253.5,-.5"/>
<text text-anchor="middle" x="1282.5" y="-14.8" font-family="Times,serif" font-size="14.00" fill="#000000">Const</text>
<polyline fill="none" stroke="#000000" points="1311.5,-.5 1311.5,-36.5 "/>
<text text-anchor="middle" x="1329.5" y="-14.8" font-family="Times,serif" font-size="14.00" fill="#000000">int</text>
<polyline fill="none" stroke="#000000" points="1347.5,-.5 1347.5,-36.5 "/>
<text text-anchor="middle" x="1360.5" y="-14.8" font-family="Times,serif" font-size="14.00" fill="#000000">1</text>
<polyline fill="none" stroke="#000000" points="1373.5,-.5 1373.5,-36.5 "/>
<text text-anchor="middle" x="1393" y="-14.8" font-family="Times,serif" font-size="14.00" fill="#000000">5,5</text>
</g>
<!-- node15&#45;&gt;node17 -->
<g id="edge17" class="edge">
<title>node15&#45;&gt;node17</title>
<path fill="none" stroke="#000000" d="M1243.4157,-73.4551C1258.863,-63.979 1277.9816,-52.2508 1294.5845,-42.0658"/>
<polygon fill="#000000" stroke="#000000" points="1296.8164,-44.8028 1303.5102,-36.5904 1293.1561,-38.836 1296.8164,-44.8028"/>
</g>
</g>
</svg>
